<svg width="58" height="62" viewBox="0 0 58 62" fill="none" xmlns="http://www.w3.org/2000/svg">
<path d="M5.07656 13.9431L7.70009 17.7017L1.86328 26.0586C2.57879 21.1535 3.69325 16.9669 5.07656 13.9431Z" fill="#D69898" stroke="#211D1D" stroke-width="2" stroke-miterlimit="10" stroke-linecap="round" stroke-linejoin="round"/>
<path d="M13.0596 10.0271L10.345 13.9149L7.63037 10.0271C7.9556 9.71219 8.28951 9.44977 8.62775 9.25195H12.0622C12.4004 9.45381 12.7343 9.71219 13.0596 10.0271Z" fill="#D69898" stroke="#211D1D" stroke-width="2" stroke-miterlimit="10" stroke-linecap="round" stroke-linejoin="round"/>
<path d="M19.3258 30.3904C19.1827 31.4845 18.9962 32.5422 18.7707 33.5556C17.266 40.346 14.0571 45.0332 10.3451 45.0332C6.63311 45.0332 3.42417 40.346 1.91943 33.5556L10.3451 21.4845L12.986 17.7017L15.6095 13.9431C16.9928 16.9669 18.1116 21.1535 18.8228 26.0586C19.0222 27.4474 19.1914 28.8967 19.3258 30.3904Z" fill="#D69898" stroke="#211D1D" stroke-width="2" stroke-miterlimit="10" stroke-linecap="round" stroke-linejoin="round"/>
<path d="M5.07656 13.9431L7.70009 17.7017L1.86328 26.0586C2.57879 21.1535 3.69325 16.9669 5.07656 13.9431Z" fill="#D69898" stroke="#211D1D" stroke-width="2" stroke-miterlimit="10" stroke-linecap="round" stroke-linejoin="round"/>
<path d="M13.0596 10.0271L10.345 13.9149L7.63037 10.0271C7.9556 9.71219 8.28951 9.44977 8.62775 9.25195H12.0622C12.4004 9.45381 12.7343 9.71219 13.0596 10.0271Z" fill="#D69898" stroke="#211D1D" stroke-width="2" stroke-miterlimit="10" stroke-linecap="round" stroke-linejoin="round"/>
<path d="M19.3258 30.3904C19.1827 31.4845 18.9962 32.5422 18.7707 33.5556C17.266 40.346 14.0571 45.0332 10.3451 45.0332C6.63311 45.0332 3.42417 40.346 1.91943 33.5556L10.3451 21.4845L12.986 17.7017L15.6095 13.9431C16.9928 16.9669 18.1116 21.1535 18.8228 26.0586C19.0222 27.4474 19.1914 28.8967 19.3258 30.3904Z" fill="#D69898" stroke="#211D1D" stroke-width="2" stroke-miterlimit="10" stroke-linecap="round" stroke-linejoin="round"/>
<path d="M51.3368 26.6762C47.7072 28.8199 45.3612 31.4077 43.8435 33.9229C43.0196 35.2834 42.4428 36.6237 42.0352 37.8551C40.899 41.3068 41.1072 43.935 41.1072 43.935V60.9919H33.2236L29.1257 44.5285C28.7441 42.9903 28.9609 41.3754 29.7371 39.9746L34.1516 32.0093L36.2244 28.2709L46.0117 10.6043C55.387 6.04235 62.4207 20.1279 51.3368 26.6762Z" fill="#D69898" stroke="#211D1D" stroke-width="2" stroke-miterlimit="10" stroke-linecap="round" stroke-linejoin="round"/>
<path d="M19.6899 38.6463C19.6899 47.5401 18.4757 55.5215 16.5504 60.9999H4.13956C2.2142 55.5256 1 47.5401 1 38.6463C1 37.3261 1.02602 36.0302 1.07806 34.7585C1.13877 33.2648 1.23417 31.8073 1.35992 30.3943C1.50302 31.4884 1.68949 32.5461 1.91498 33.5595C3.41972 40.3499 6.62867 45.0371 10.3406 45.0371C14.0526 45.0371 17.2616 40.3499 18.7663 33.5595C18.9918 32.5502 19.1782 31.4925 19.3213 30.3943C19.4471 31.8073 19.5425 33.2648 19.6032 34.7585C19.6596 36.0262 19.6899 37.3261 19.6899 38.6463Z" fill="#D69898" stroke="#211D1D" stroke-width="2" stroke-miterlimit="10" stroke-linecap="round" stroke-linejoin="round"/>
<path d="M1.35986 1H19.3256V5.12596H1.35986V1Z" fill="#D69898" stroke="#211D1D" stroke-width="2" stroke-miterlimit="10" stroke-linecap="round" stroke-linejoin="round"/>
<path d="M1.35986 5.12592H19.3256V9.25188H1.35986V5.12592Z" fill="#D69898" stroke="#211D1D" stroke-width="2" stroke-miterlimit="10" stroke-linecap="round" stroke-linejoin="round"/>
<path d="M24.3125 5.12592H42.2783V9.25188H24.3125V5.12592Z" fill="#D69898" stroke="#211D1D" stroke-width="2" stroke-miterlimit="10" stroke-linecap="round" stroke-linejoin="round"/>
<path d="M10.345 13.9149L7.69977 17.7017L5.07624 13.9431L1.80225 9.25195H7.08834L7.63039 10.0271L10.345 13.9149Z" fill="#D69898" stroke="#211D1D" stroke-width="2" stroke-miterlimit="10" stroke-linecap="round" stroke-linejoin="round"/>
<path d="M19.3259 30.3903C19.1828 31.4844 18.9964 32.5421 18.7709 33.5555L10.3452 21.4844L12.9861 17.7016L18.8229 26.0585C19.0224 27.4473 19.1915 28.8966 19.3259 30.3903Z" fill="#D69898" stroke="#211D1D" stroke-width="2" stroke-miterlimit="10" stroke-linecap="round" stroke-linejoin="round"/>
<path d="M36.2252 28.2709L34.1524 32.0093L27.6694 27.193L30.3146 23.8825L36.2252 28.2709Z" fill="#D69898" stroke="#211D1D" stroke-width="2" stroke-miterlimit="10" stroke-linecap="round" stroke-linejoin="round"/>
<path d="M24.3125 1.00006H42.2783V5.12602H24.3125V1.00006Z" fill="#D69898" stroke="#211D1D" stroke-width="2" stroke-miterlimit="10" stroke-linecap="round" stroke-linejoin="round"/>
<path d="M41.9962 9.25195L30.3139 23.8826L27.6686 27.193L26.8447 21.3069L36.4759 9.25195H41.9962Z" fill="#D69898" stroke="#211D1D" stroke-width="2" stroke-miterlimit="10" stroke-linecap="round" stroke-linejoin="round"/>
<path d="M18.8834 9.25195L15.6094 13.9431L12.9858 17.7017L10.345 21.4845L1.91932 33.5556C1.69382 32.5463 1.50736 31.4886 1.36426 30.3904C1.49869 28.8967 1.66781 27.4474 1.87162 26.0586L7.70843 17.7017L10.3493 13.9189L13.0639 10.0311L13.606 9.25195H18.8834Z" fill="#D69898" stroke="#211D1D" stroke-width="2" stroke-miterlimit="10" stroke-linecap="round" stroke-linejoin="round"/>
</svg>
