<svg width="200" height="86" viewBox="0 0 200 86" fill="none" xmlns="http://www.w3.org/2000/svg">
<g clip-path="url(#clip0_248_3)">
<path d="M9.13003 24.0944C9.14532 23.856 9.10651 23.6171 9.01644 23.3955C8.92638 23.1739 8.78735 22.9751 8.60962 22.8139C7.07255 21.4202 2.88651 17.5654 1.8846 16.0253C0.65199 14.1218 0.0175791 5.18476 0.0698878 4.33419C0.173164 2.68628 2.3822 0.374153 3.64834 0.137216C4.24117 0.0254033 4.36457 0.0600118 4.49199 0.217082C4.55455 0.298553 4.58317 0.400767 4.57193 0.50259C4.5607 0.604414 4.51047 0.69806 4.43163 0.764166C3.84282 1.28063 1.78669 3.16015 1.61501 4.50457C1.4326 5.8969 2.79799 12.1424 3.09843 13.4909C3.13619 13.6588 3.21917 13.8133 3.33851 13.9381L8.70351 19.5594C8.70351 19.5594 11.7884 21.2592 12.2659 22.0751C12.7434 22.8911 12.9499 18.4386 12.9499 18.4386C12.9499 18.4386 11.8206 17.3511 12.3343 16.8745C12.6548 16.5777 12.6548 16.3594 12.6092 16.2383C12.5829 16.1756 12.571 16.1079 12.5745 16.0401C12.578 15.9722 12.5968 15.9061 12.6295 15.8464C12.6622 15.7868 12.7079 15.7352 12.7634 15.6954C12.8188 15.6556 12.8826 15.6287 12.9499 15.6166C13.3268 15.5487 12.8815 14.6995 13.084 14.6995H13.6795C13.7743 14.7001 13.8675 14.6758 13.9498 14.629C14.032 14.5823 14.1003 14.5147 14.1476 14.4333C14.5044 13.8223 15.5667 12.4087 17.5705 12.8652C20.1041 13.4429 20.0357 15.8562 20.0357 15.8562C20.0357 15.8562 20.6178 15.3464 20.9612 15.7551C21.2858 16.1411 21.9483 18.2695 19.7702 18.4892C19.7216 18.494 19.6725 18.4887 19.6261 18.4736C19.5797 18.4584 19.537 18.4339 19.5007 18.4014C19.4645 18.3689 19.4355 18.3293 19.4156 18.285C19.3957 18.2408 19.3853 18.1929 19.3852 18.1444C19.3857 18.1383 19.3842 18.1322 19.3809 18.127C19.3776 18.1219 19.3727 18.1179 19.3669 18.1158C19.3611 18.1137 19.3548 18.1135 19.3489 18.1153C19.343 18.1171 19.3378 18.1208 19.3342 18.1258C19.066 18.4346 17.7395 19.8362 16.3325 19.7231C16.2257 19.7134 16.1189 19.7423 16.0317 19.8044C15.9445 19.8665 15.8827 19.9576 15.8577 20.0612C15.5318 21.4628 15.7893 22.0019 15.7893 22.0019C15.7893 22.0019 16.0294 23.1241 16.7483 23.333C17.4672 23.542 19.0499 23.4755 20.1725 24.0465C21.4856 24.7121 26.7138 24.9876 28.1181 25.2711C28.723 25.3723 39.9318 24.3194 40.7258 24.6588C41.5198 24.9983 44.7965 25.2978 44.9306 25.8755C44.9804 26.1063 45.0003 26.3425 44.9897 26.5783C44.987 26.6488 44.9684 26.7179 44.9352 26.7803C44.902 26.8427 44.8551 26.897 44.7978 26.9389C44.7406 26.9809 44.6746 27.0095 44.6047 27.0226C44.5348 27.0358 44.4629 27.0331 44.3941 27.0149C43.8925 26.8685 43.521 26.6302 43.1454 26.5317C42.7699 26.4332 40.9887 26.8924 39.9412 26.2189C39.8554 26.1644 39.756 26.1349 39.6542 26.1337C37.8207 26.1097 32.6073 27.3982 29.8134 27.4315C29.4224 27.4333 29.0323 27.395 28.6492 27.317C26.3959 26.8791 22.7316 26.7846 21.7351 26.7593C21.5862 26.7593 21.44 26.7487 21.2925 26.734C20.7466 26.6794 19.1559 26.5929 18.7052 27.3676C18.4654 27.9741 18.1927 28.5673 17.8884 29.1446C17.6571 29.5918 17.5375 30.0876 17.5397 30.5902C17.5477 32.1609 17.8978 35.3383 20.6165 34.9829C24.2124 34.5063 32.1767 34.4345 34.6915 33.9632C37.2587 33.4814 37.5404 31.7163 42.6706 30.9017C44.3217 30.6182 48.7143 30.5955 49.904 30.5955C50.1049 30.5954 50.3049 30.5703 50.4995 30.521L52.4175 30.0391C52.5416 30.0091 52.652 29.9386 52.731 29.8389C52.8101 29.7393 52.8531 29.6162 52.8534 29.4894C52.8369 29.2106 52.9143 28.9344 53.0733 28.704C53.2324 28.4736 53.464 28.3023 53.7319 28.2169C54.9297 27.7749 56.4707 29.0661 58.5255 27.5367C60.0291 26.4185 60.7493 27.1799 60.9063 27.5686C60.9346 27.6381 60.9406 27.7146 60.9233 27.7875C60.906 27.8605 60.8663 27.9263 60.8097 27.9759C59.8708 28.7986 55.1121 32.3859 53.457 32.2954C51.9279 32.0292 42.6438 34.4983 40.3664 35.1147C40.0333 35.205 39.7091 35.3253 39.398 35.474L33.699 38.2081C33.699 38.2081 25.1486 41.7688 21.5487 42.3079C21.2257 42.3542 20.9302 42.514 20.716 42.7584C20.5019 43.0027 20.3832 43.3152 20.3818 43.639C20.3751 46.6447 20.2476 55.1185 20.316 58.4356C20.3246 59.0464 20.4268 59.6523 20.6192 60.2326C20.7171 60.5268 20.7962 60.9474 21.0108 61.9071C21.387 63.5949 21.4569 65.3357 21.2174 67.0478C20.654 71.0798 19.349 76.0754 19.6079 77.7047C19.6333 77.8618 19.6963 78.0106 19.7916 78.1386C20.6084 79.2381 20.5078 80.078 19.5234 81.7459C18.9854 82.6366 18.7503 83.6754 18.8527 84.7089C18.8772 84.8945 18.8557 85.0831 18.79 85.2585C18.7244 85.4339 18.6165 85.5907 18.4758 85.7153C18.2438 85.9136 17.9058 86.0281 17.4364 85.8231C16.5243 85.4237 16.7027 83.9023 16.7886 83.4005C16.8111 83.2683 16.8264 83.135 16.8342 83.0011L16.9911 80.3536L17.1628 75.2954L17.368 67.2062C17.368 67.2062 17.2982 60.6838 17.0581 58.1547C17.0233 57.79 17 57.4253 16.9884 57.0606C16.8543 52.801 15.5868 43.695 15.5868 43.695L14.7311 41.4174C14.7311 41.4174 8.66193 38.5955 8.18042 30.2934C6.60579 27.9147 8.07849 26.521 8.07849 26.521L8.49159 26.0751C8.84346 25.6946 9.05359 25.2061 9.0871 24.6908L9.13003 24.0944Z" fill="#D69898" stroke="#D69898" stroke-miterlimit="10"/>
<path d="M19.2468 33.6583C19.2468 33.6583 27.5437 30.847 31.6533 33.2496C33.3647 34.2493 34.5544 35.595 34.6389 37.7607C34.8455 42.98 33.9375 46.0974 28.8353 50.96C25.6163 53.4372 20.8978 54.9173 16.0935 54.6312C6.96092 54.0867 6.67657 49.1257 6.67657 49.1257C6.67657 49.1257 4.72371 42.1241 11.0249 38.0456L19.2468 33.6583Z" fill="#D69898" stroke="#D69898" stroke-miterlimit="10"/>
</g>
<path d="M73.288 51.696L73.048 54.576C72.312 54.512 71.512 54.48 70.648 54.48C69.816 54.48 69.112 54.496 68.536 54.528C68.088 58.048 67.8 61.872 67.672 66H64.312C64.12 65.168 64.024 64.064 64.024 62.688C64.024 61.312 64.056 60.128 64.12 59.136C64.216 58.112 64.328 57.104 64.456 56.112C64.584 55.12 64.648 54.544 64.648 54.384C64.2 54.352 63.144 54.336 61.48 54.336C59.816 54.336 58.664 54.368 58.024 54.432C54.312 59.424 50.888 63.216 47.752 65.808C44.616 68.368 41.48 69.648 38.344 69.648C36.808 69.648 35.512 69.184 34.456 68.256C33.432 67.328 32.92 66.096 32.92 64.56C32.92 61.648 35.128 58.992 39.544 56.592C43.992 54.192 49.736 52.576 56.776 51.744C57.608 50.464 59.16 48.496 61.432 45.84C63.704 43.152 65.944 40.816 68.152 38.832C69.112 36.592 69.864 35.04 70.408 34.176C70.984 33.28 71.544 32.832 72.088 32.832C72.632 32.832 73.08 33.04 73.432 33.456C73.784 33.872 73.96 34.416 73.96 35.088C73.96 35.728 73.592 36.688 72.856 37.968C72.152 39.216 71.416 41.168 70.648 43.824C69.88 46.448 69.352 48.928 69.064 51.264C70.728 51.264 72.136 51.408 73.288 51.696ZM48.808 61.728C51.464 59.2 53.464 56.8 54.808 54.528C49.432 54.848 45.272 55.856 42.328 57.552C39.416 59.248 37.96 61.056 37.96 62.976C37.96 63.808 38.232 64.464 38.776 64.944C39.352 65.424 40.104 65.664 41.032 65.664C43.528 65.664 46.12 64.352 48.808 61.728ZM65.224 51.264C65.448 50.176 65.736 48.816 66.088 47.184C66.472 45.52 66.696 44.544 66.76 44.256C65.224 45.728 64.152 46.816 63.544 47.52C62.936 48.192 61.864 49.504 60.328 51.456C60.872 51.424 61.528 51.408 62.296 51.408C63.096 51.376 63.752 51.344 64.264 51.312C64.776 51.28 65.096 51.264 65.224 51.264ZM83.9714 57.168C86.4034 53.52 88.5154 51.04 90.3074 49.728C92.0994 48.384 93.6674 47.712 95.0114 47.712C96.3554 47.712 97.3954 48.128 98.1314 48.96C98.8674 49.76 99.2354 50.784 99.2354 52.032C99.2354 55.488 97.9874 58.688 95.4914 61.632C93.0274 64.544 90.2434 66 87.1394 66C85.7634 66 84.6754 65.76 83.8754 65.28L85.0274 63.216C86.7234 63.44 87.7634 63.552 88.1474 63.552C89.8754 63.552 91.4914 62.544 92.9954 60.528C94.4994 58.512 95.2514 56.448 95.2514 54.336C95.2514 53.536 95.0114 52.88 94.5314 52.368C94.0834 51.824 93.4914 51.552 92.7554 51.552C90.9954 51.552 88.9954 53.104 86.7554 56.208C84.5474 59.312 82.4674 63.152 80.5154 67.728C78.5954 72.336 76.9154 77.232 75.4754 82.416L72.5954 81.408C72.6594 81.216 73.2674 79.552 74.4194 76.416C75.5394 73.312 76.6434 70.224 77.7314 67.152C80.7394 58.704 82.2434 54.08 82.2434 53.28C82.2434 51.232 81.8274 49.376 80.9954 47.712L83.3954 46.512C84.3874 47.888 84.8834 49.344 84.8834 50.88C84.8834 52.384 84.5794 54.48 83.9714 57.168ZM122.115 61.152L123.219 61.968C122.771 62.928 121.939 63.84 120.723 64.704C119.539 65.568 118.451 66 117.459 66C115.571 66 114.627 65.008 114.627 63.024C114.627 62.096 114.867 60.992 115.347 59.712L113.571 61.536C111.843 63.296 110.339 64.48 109.059 65.088C107.811 65.696 106.579 66 105.363 66C104.147 66 103.219 65.664 102.579 64.992C101.971 64.288 101.667 63.328 101.667 62.112C101.667 59.872 102.531 57.664 104.259 55.488C105.987 53.28 108.195 51.488 110.883 50.112C113.571 48.736 116.259 48.032 118.947 48L119.043 49.584L117.027 50.016C114.115 50.656 111.539 51.936 109.299 53.856C107.091 55.776 105.987 57.696 105.987 59.616C105.987 61.504 106.755 62.448 108.291 62.448C109.731 62.448 111.507 61.44 113.619 59.424C115.731 57.408 117.491 55.04 118.899 52.32L120.915 53.52C118.931 57.52 117.939 60.064 117.939 61.152C117.939 61.6 118.083 61.984 118.371 62.304C118.691 62.592 118.995 62.736 119.283 62.736C119.603 62.736 119.811 62.72 119.907 62.688C120.003 62.656 120.099 62.624 120.195 62.592C120.291 62.528 120.403 62.448 120.531 62.352C120.691 62.256 120.819 62.16 120.915 62.064C121.043 61.968 121.235 61.824 121.491 61.632C121.747 61.44 121.955 61.28 122.115 61.152ZM129.423 39.12C129.423 37.392 130.063 36.064 131.343 35.136C132.623 34.208 134.431 33.744 136.767 33.744C139.135 33.712 140.735 33.888 141.567 34.272L141.135 36.288C140.015 36.128 138.799 36.048 137.487 36.048C134.671 36.048 133.263 37.216 133.263 39.552C133.263 40.192 134.111 42.08 135.807 45.216C137.535 48.352 138.527 50.24 138.783 50.88C139.071 51.52 139.311 52.368 139.503 53.424C139.727 54.448 139.839 55.216 139.839 55.728C139.839 58.544 138.959 60.976 137.199 63.024C135.439 65.04 133.311 66.048 130.815 66.048C128.959 66.048 127.503 65.52 126.447 64.464C125.423 63.376 124.911 61.824 124.911 59.808C124.911 57.76 125.567 55.744 126.879 53.76C128.191 51.776 129.855 50.288 131.871 49.296L132.495 51.168C130.031 52.704 128.799 54.88 128.799 57.696C128.799 59.072 129.135 60.192 129.807 61.056C130.479 61.888 131.407 62.304 132.591 62.304C133.775 62.304 134.799 61.776 135.663 60.72C136.559 59.664 137.007 58.336 137.007 56.736C137.007 55.136 136.783 53.856 136.335 52.896C135.919 51.936 135.119 50.448 133.935 48.432C130.927 43.152 129.423 40.048 129.423 39.12ZM156.259 60.336L157.363 61.2C156.371 62.576 155.011 63.728 153.283 64.656C151.555 65.552 149.875 66 148.243 66C146.611 66 145.299 65.52 144.307 64.56C143.315 63.6 142.819 62.336 142.819 60.768C142.819 57.824 144.371 54.928 147.475 52.08C150.611 49.232 153.779 47.808 156.979 47.808C159.091 47.808 160.147 48.64 160.147 50.304C160.147 52.032 159.027 53.776 156.787 55.536C154.579 57.296 151.459 58.896 147.427 60.336C147.715 61.072 148.163 61.648 148.771 62.064C149.379 62.48 150.003 62.688 150.643 62.688C152.019 62.688 153.891 61.904 156.259 60.336ZM147.187 58.896C149.779 58 152.003 56.88 153.859 55.536C155.715 54.192 156.643 52.96 156.643 51.84C156.643 51.424 156.483 51.056 156.163 50.736C155.843 50.416 155.475 50.256 155.059 50.256C153.555 50.256 151.923 51.2 150.163 53.088C148.435 54.944 147.443 56.88 147.187 58.896ZM173.452 59.184L174.604 60.144C173.836 61.904 172.604 63.312 170.908 64.368C169.212 65.424 167.564 65.952 165.964 65.952C164.396 65.952 163.084 65.456 162.028 64.464C161.004 63.472 160.492 62.112 160.492 60.384C160.492 58.656 161.244 56.784 162.748 54.768C164.252 52.752 166.188 51.088 168.556 49.776C170.956 48.464 173.308 47.808 175.612 47.808C175.932 47.808 176.412 47.84 177.052 47.904L176.908 49.776C173.388 49.936 170.46 51.008 168.124 52.992C165.82 54.976 164.668 57.088 164.668 59.328C164.668 60.256 164.956 61.008 165.532 61.584C166.108 62.16 166.86 62.448 167.788 62.448C169.26 62.448 171.148 61.36 173.452 59.184ZM196.193 60.672L197.393 61.728C195.537 64.768 193.569 66.288 191.489 66.288C190.305 66.288 189.089 65.52 187.841 63.984C186.625 62.448 185.889 60.96 185.633 59.52C185.441 59.872 184.897 60.8 184.001 62.304C183.105 63.808 182.465 65.04 182.081 66L179.201 64.992C179.873 61.056 180.689 57.344 181.649 53.856C182.641 50.368 183.569 47.92 184.433 46.512L186.401 47.136C185.825 48.608 184.865 52.528 183.521 58.896C185.281 55.28 187.057 52.64 188.849 50.976C190.641 49.28 192.609 48.16 194.753 47.616V50.784C192.449 50.88 190.225 52.432 188.081 55.44C188.209 57.52 188.817 59.248 189.905 60.624C191.025 62 192.081 62.688 193.073 62.688C193.553 62.688 194.593 62.016 196.193 60.672Z" fill="#D69898"/>
<defs>
<clipPath id="clip0_248_3">
<rect width="61" height="86" fill="white"/>
</clipPath>
</defs>
</svg>
