<svg width="198" height="86" viewBox="0 0 198 86" fill="none" xmlns="http://www.w3.org/2000/svg">
<path fill-rule="evenodd" clip-rule="evenodd" d="M9.13003 24.0943C9.14532 23.8558 9.10651 23.617 9.01644 23.3954C8.92638 23.1737 8.78735 22.975 8.60962 22.8138C7.07255 21.4201 2.88651 17.5652 1.8846 16.0252C0.65199 14.1217 0.0175791 5.18464 0.0698878 4.33407C0.173164 2.68616 2.3822 0.374031 3.64834 0.137094C4.24117 0.0252812 4.36457 0.0598897 4.49199 0.21696C4.55455 0.298431 4.58317 0.400645 4.57193 0.502468C4.5607 0.604292 4.51047 0.697938 4.43163 0.764044C3.84282 1.28051 1.78669 3.16003 1.61501 4.50445C1.4326 5.89678 2.79799 12.1423 3.09843 13.4907C3.13619 13.6586 3.21917 13.8132 3.33851 13.938L8.70351 19.5592C8.70351 19.5592 11.7884 21.2591 12.2659 22.075C12.7434 22.891 12.9499 18.4384 12.9499 18.4384C12.9499 18.4384 11.8206 17.3509 12.3343 16.8744C12.6548 16.5776 12.6548 16.3593 12.6092 16.2381C12.5829 16.1755 12.571 16.1077 12.5745 16.0399C12.578 15.9721 12.5968 15.906 12.6295 15.8463C12.6622 15.7867 12.7079 15.735 12.7634 15.6953C12.8188 15.6555 12.8826 15.6286 12.9499 15.6165C13.1689 15.5771 13.1103 15.2737 13.0625 15.0265C13.028 14.8483 12.9992 14.6994 13.084 14.6994H13.6795C13.7743 14.7 13.8675 14.6757 13.9498 14.6289C14.032 14.5821 14.1003 14.5146 14.1476 14.4332C14.5044 13.8222 15.5667 12.4085 17.5705 12.8651C20.1041 13.4428 20.0357 15.8561 20.0357 15.8561C20.0357 15.8561 20.6178 15.3463 20.9612 15.7549C21.2858 16.141 21.9483 18.2694 19.7702 18.489C19.7216 18.4939 19.6725 18.4885 19.6261 18.4734C19.5797 18.4583 19.537 18.4337 19.5007 18.4013C19.4645 18.3688 19.4355 18.3292 19.4156 18.2849C19.3957 18.2406 19.3853 18.1927 19.3852 18.1443C19.3857 18.1382 19.3842 18.1321 19.3809 18.1269C19.3776 18.1217 19.3727 18.1178 19.3669 18.1157C19.3611 18.1136 19.3548 18.1134 19.3489 18.1152C19.343 18.117 19.3378 18.1207 19.3342 18.1256C19.066 18.4345 17.7395 19.8361 16.3325 19.723C16.2257 19.7133 16.1189 19.7422 16.0317 19.8043C15.9445 19.8663 15.8827 19.9575 15.8577 20.0611C15.5318 21.4627 15.7893 22.0018 15.7893 22.0018C15.7893 22.0018 16.0294 23.1239 16.7483 23.3329C17 23.4061 17.3575 23.4455 17.764 23.4903L17.764 23.4903C18.5189 23.5734 19.4429 23.6752 20.1725 24.0464C21.0425 24.4873 23.6309 24.7571 25.6873 24.9714C26.7348 25.0806 27.6442 25.1753 28.1181 25.271C28.346 25.3091 30.0786 25.1835 32.1925 25.0301L32.1926 25.0301C35.6901 24.7765 40.2309 24.4471 40.7258 24.6587C41.0187 24.7839 41.6494 24.9037 42.3356 25.034C43.5096 25.2569 44.846 25.5107 44.9306 25.8753C44.9804 26.1061 45.0003 26.3423 44.9897 26.5782C44.987 26.6487 44.9684 26.7178 44.9352 26.7802C44.902 26.8426 44.8551 26.8968 44.7978 26.9388C44.7406 26.9807 44.6746 27.0093 44.6047 27.0225C44.5348 27.0356 44.4629 27.033 44.3941 27.0148C44.1362 26.9395 43.9127 26.8399 43.7054 26.7476C43.5094 26.6603 43.3279 26.5794 43.1454 26.5316C43.0358 26.5028 42.8061 26.5216 42.5099 26.5459C41.792 26.6047 40.6828 26.6956 39.9412 26.2188C39.8554 26.1643 39.756 26.1348 39.6542 26.1336C38.8007 26.1224 37.2148 26.3957 35.4815 26.6943C33.4913 27.0372 31.3067 27.4136 29.8134 27.4314C29.4224 27.4332 29.0323 27.3948 28.6492 27.3169C26.3959 26.879 22.7316 26.7845 21.7351 26.7592C21.5862 26.7592 21.44 26.7485 21.2925 26.7339C20.7466 26.6793 19.1559 26.5928 18.7052 27.3675C18.4654 27.974 18.1927 28.5672 17.8884 29.1445C17.6571 29.5917 17.5375 30.0875 17.5397 30.5901C17.5446 31.5531 17.6781 33.12 18.4072 34.1065L19.2471 33.6583C19.2471 33.6583 27.544 30.847 31.6536 33.2496C32.1303 33.5281 32.5666 33.8334 32.9497 34.1758C33.6594 34.1141 34.2569 34.0446 34.6915 33.9631C35.7347 33.7673 36.4005 33.3597 37.1675 32.89C38.2882 32.2038 39.625 31.3852 42.6706 30.9016C44.3217 30.6181 48.7143 30.5954 49.904 30.5954C50.1049 30.5953 50.3049 30.5702 50.4995 30.5209L52.4175 30.039C52.5416 30.009 52.652 29.9385 52.731 29.8388C52.8101 29.7392 52.8531 29.6161 52.8534 29.4893C52.8369 29.2105 52.9143 28.9342 53.0733 28.7039C53.2324 28.4735 53.464 28.3022 53.7319 28.2167C54.172 28.0543 54.6585 28.126 55.1998 28.2057C56.1316 28.3429 57.2258 28.504 58.5255 27.5366C60.0291 26.4184 60.7493 27.1798 60.9063 27.5685C60.9346 27.638 60.9406 27.7144 60.9233 27.7874C60.906 27.8604 60.8663 27.9262 60.8097 27.9758C59.8708 28.7984 55.1121 32.3858 53.457 32.2952C51.9279 32.029 42.6438 34.4982 40.3664 35.1145C40.0333 35.2049 39.7091 35.3252 39.398 35.4739L34.6391 37.757L34.6392 37.7608C34.8458 42.98 33.9378 46.0975 28.8357 50.96C26.5689 52.7044 23.5587 53.9543 20.2985 54.4413C20.2927 56.0385 20.2959 57.46 20.316 58.4355C20.3246 59.0463 20.4268 59.6522 20.6192 60.2325C20.6901 60.4456 20.7512 60.7251 20.861 61.2278L20.8612 61.2284C20.9029 61.4195 20.9517 61.6428 21.0108 61.907C21.387 63.5948 21.4569 65.3356 21.2174 67.0477C21.0047 68.5699 20.6863 70.2294 20.3863 71.7933L20.3862 71.7934C19.8915 74.3719 19.4467 76.6904 19.6079 77.7045C19.6333 77.8617 19.6963 78.0105 19.7916 78.1385C20.6084 79.238 20.5078 80.0779 19.5234 81.7458C18.9854 82.6365 18.7503 83.6753 18.8527 84.7088C18.8772 84.8943 18.8557 85.083 18.79 85.2584C18.7244 85.4337 18.6165 85.5905 18.4758 85.7151C18.2438 85.9135 17.9058 86.0279 17.4364 85.823C16.5243 85.4236 16.7027 83.9022 16.7886 83.4003C16.8111 83.2682 16.8264 83.1348 16.8342 83.001L16.9911 80.3534L17.1628 75.2952L17.368 67.2061C17.368 67.2061 17.2982 60.6837 17.0581 58.1546C17.0233 57.7899 17 57.4252 16.9884 57.0604C16.9666 56.3687 16.915 55.5492 16.8437 54.6616C16.5941 54.6562 16.3441 54.6461 16.0938 54.6312C6.96123 54.0868 6.67688 49.1257 6.67688 49.1257C6.67688 49.1257 4.74468 42.1982 10.9256 38.1108C9.59796 36.3581 8.38498 33.8202 8.18042 30.2933C6.60579 27.9146 8.07849 26.5209 8.07849 26.5209L8.49159 26.075C8.84346 25.6945 9.05359 25.206 9.0871 24.6906L9.13003 24.0943ZM73.0481 54.576L73.2881 51.696C72.1361 51.408 70.7281 51.264 69.0641 51.264C69.3521 48.928 69.8801 46.448 70.6481 43.824C71.4161 41.168 72.1521 39.216 72.8561 37.968C73.5921 36.688 73.9601 35.728 73.9601 35.088C73.9601 34.416 73.7841 33.872 73.4321 33.456C73.0801 33.04 72.6321 32.832 72.0882 32.832C71.5441 32.832 70.9841 33.28 70.4081 34.176C69.8641 35.04 69.1121 36.592 68.1521 38.832C65.9441 40.816 63.7041 43.152 61.4321 45.84C59.1601 48.496 57.6081 50.464 56.7761 51.744C49.7361 52.576 43.9921 54.192 39.5441 56.592C35.1281 58.992 32.9201 61.648 32.9201 64.56C32.9201 66.096 33.4321 67.328 34.4561 68.256C35.5121 69.184 36.8081 69.648 38.3441 69.648C41.4801 69.648 44.6161 68.368 47.7521 65.808C50.8881 63.216 54.3121 59.424 58.0241 54.432C58.6641 54.368 59.8161 54.336 61.4801 54.336C63.1441 54.336 64.2001 54.352 64.6481 54.384C64.6481 54.544 64.5841 55.12 64.4561 56.112C64.3281 57.104 64.2161 58.112 64.1201 59.136C64.0561 60.128 64.0241 61.312 64.0241 62.688C64.0241 64.064 64.1201 65.168 64.3121 66H67.6721C67.8001 61.872 68.0881 58.048 68.5361 54.528C69.1121 54.496 69.8161 54.48 70.6481 54.48C71.5121 54.48 72.3121 54.512 73.0481 54.576ZM54.8081 54.528C53.4641 56.8 51.4641 59.2 48.8081 61.728C46.1201 64.352 43.5281 65.664 41.0321 65.664C40.1041 65.664 39.3521 65.424 38.7761 64.944C38.2321 64.464 37.9601 63.808 37.9601 62.976C37.9601 61.056 39.4161 59.248 42.3281 57.552C45.2721 55.856 49.4321 54.848 54.8081 54.528ZM66.0881 47.184C65.7361 48.816 65.4481 50.176 65.2241 51.264C65.0961 51.264 64.7761 51.28 64.2641 51.312C63.7521 51.344 63.0961 51.376 62.2961 51.408C61.5281 51.408 60.8721 51.424 60.3281 51.456C61.8641 49.504 62.9361 48.192 63.5441 47.52C64.1521 46.816 65.2241 45.728 66.7601 44.256C66.6961 44.544 66.4721 45.52 66.0881 47.184ZM90.3075 49.728C88.5155 51.04 86.4035 53.52 83.9715 57.168C84.5795 54.48 84.8835 52.384 84.8835 50.88C84.8835 49.344 84.3875 47.888 83.3955 46.512L80.9955 47.712C81.8275 49.376 82.2435 51.232 82.2435 53.28C82.2435 54.08 80.7395 58.704 77.7315 67.152C76.6435 70.224 75.5395 73.312 74.4195 76.416C73.2675 79.552 72.6595 81.216 72.5955 81.408L75.4755 82.416C76.9155 77.232 78.5955 72.336 80.5155 67.728C82.4675 63.152 84.5475 59.312 86.7555 56.208C88.9955 53.104 90.9955 51.552 92.7555 51.552C93.4915 51.552 94.0835 51.824 94.5315 52.368C95.0115 52.88 95.2515 53.536 95.2515 54.336C95.2515 56.448 94.4995 58.512 92.9955 60.528C91.4915 62.544 89.8755 63.552 88.1475 63.552C87.7635 63.552 86.7235 63.44 85.0275 63.216L83.8755 65.28C84.6755 65.76 85.7635 66 87.1395 66C90.2435 66 93.0275 64.544 95.4915 61.632C97.9875 58.688 99.2355 55.488 99.2355 52.032C99.2355 50.784 98.8675 49.76 98.1315 48.96C97.3955 48.128 96.3555 47.712 95.0115 47.712C93.6675 47.712 92.0995 48.384 90.3075 49.728ZM123.219 61.968L122.115 61.152C121.955 61.28 121.747 61.44 121.491 61.632L120.915 62.064C120.819 62.16 120.691 62.256 120.531 62.352C120.403 62.448 120.291 62.528 120.195 62.592L119.907 62.688C119.811 62.72 119.603 62.736 119.283 62.736C118.995 62.736 118.691 62.592 118.371 62.304C118.083 61.984 117.939 61.6 117.939 61.152C117.939 60.064 118.931 57.52 120.915 53.52L118.899 52.32C117.491 55.04 115.731 57.408 113.619 59.424C111.507 61.44 109.731 62.448 108.291 62.448C106.755 62.448 105.987 61.504 105.987 59.616C105.987 57.696 107.091 55.776 109.299 53.856C111.539 51.936 114.115 50.656 117.027 50.016L119.043 49.584L118.947 48C116.259 48.032 113.571 48.736 110.883 50.112C108.195 51.488 105.987 53.28 104.259 55.488C102.531 57.664 101.667 59.872 101.667 62.112C101.667 63.328 101.971 64.288 102.579 64.992C103.219 65.664 104.147 66 105.363 66C106.579 66 107.811 65.696 109.059 65.088C110.339 64.48 111.843 63.296 113.571 61.536L115.347 59.712C114.867 60.992 114.627 62.096 114.627 63.024C114.627 65.008 115.571 66 117.459 66C118.451 66 119.539 65.568 120.723 64.704C121.939 63.84 122.771 62.928 123.219 61.968ZM131.343 35.136C130.063 36.064 129.423 37.392 129.423 39.12C129.423 40.048 130.927 43.152 133.935 48.432C135.119 50.448 135.919 51.936 136.335 52.896C136.783 53.856 137.007 55.136 137.007 56.736C137.007 58.336 136.559 59.664 135.663 60.72C134.799 61.776 133.775 62.304 132.591 62.304C131.407 62.304 130.479 61.888 129.807 61.056C129.135 60.192 128.799 59.072 128.799 57.696C128.799 54.88 130.031 52.704 132.495 51.168L131.871 49.296C129.855 50.288 128.191 51.776 126.879 53.76C125.567 55.744 124.911 57.76 124.911 59.808C124.911 61.824 125.423 63.376 126.447 64.464C127.503 65.52 128.959 66.048 130.815 66.048C133.311 66.048 135.439 65.04 137.199 63.024C138.959 60.976 139.839 58.544 139.839 55.728C139.839 55.216 139.727 54.448 139.503 53.424C139.311 52.368 139.071 51.52 138.783 50.88C138.527 50.24 137.535 48.352 135.807 45.216C134.111 42.08 133.263 40.192 133.263 39.552C133.263 37.216 134.671 36.048 137.487 36.048C138.799 36.048 140.015 36.128 141.135 36.288L141.567 34.272C140.735 33.888 139.135 33.712 136.767 33.744C134.431 33.744 132.623 34.208 131.343 35.136ZM157.364 61.2L156.26 60.336C153.892 61.904 152.02 62.688 150.644 62.688C150.004 62.688 149.38 62.48 148.772 62.064C148.164 61.648 147.716 61.072 147.428 60.336C151.46 58.896 154.58 57.296 156.788 55.536C159.028 53.776 160.148 52.032 160.148 50.304C160.148 48.64 159.092 47.808 156.98 47.808C153.78 47.808 150.612 49.232 147.476 52.08C144.372 54.928 142.82 57.824 142.82 60.768C142.82 62.336 143.316 63.6 144.308 64.56C145.3 65.52 146.612 66 148.244 66C149.876 66 151.556 65.552 153.284 64.656C155.012 63.728 156.372 62.576 157.364 61.2ZM153.86 55.536C152.004 56.88 149.78 58 147.188 58.896C147.444 56.88 148.436 54.944 150.164 53.088C151.924 51.2 153.556 50.256 155.06 50.256C155.476 50.256 155.844 50.416 156.164 50.736C156.484 51.056 156.644 51.424 156.644 51.84C156.644 52.96 155.716 54.192 153.86 55.536ZM174.605 60.144L173.453 59.184C171.149 61.36 169.261 62.448 167.789 62.448C166.861 62.448 166.109 62.16 165.533 61.584C164.957 61.008 164.669 60.256 164.669 59.328C164.669 57.088 165.821 54.976 168.125 52.992C170.461 51.008 173.389 49.936 176.909 49.776L177.053 47.904C176.413 47.84 175.933 47.808 175.613 47.808C173.309 47.808 170.957 48.464 168.557 49.776C166.189 51.088 164.253 52.752 162.749 54.768C161.245 56.784 160.493 58.656 160.493 60.384C160.493 62.112 161.005 63.472 162.029 64.464C163.085 65.456 164.397 65.952 165.965 65.952C167.565 65.952 169.213 65.424 170.909 64.368C172.605 63.312 173.837 61.904 174.605 60.144ZM197.393 61.728L196.193 60.672C194.593 62.016 193.553 62.688 193.073 62.688C192.081 62.688 191.025 62 189.905 60.624C188.817 59.248 188.209 57.52 188.081 55.44C190.225 52.432 192.449 50.88 194.753 50.784V47.616C192.609 48.16 190.641 49.28 188.849 50.976C187.057 52.64 185.281 55.28 183.521 58.896C184.865 52.528 185.825 48.608 186.401 47.136L184.433 46.512C183.569 47.92 182.641 50.368 181.649 53.856C180.689 57.344 179.873 61.056 179.201 64.992L182.081 66C182.465 65.04 183.105 63.808 184.001 62.304C184.897 60.8 185.441 59.872 185.633 59.52C185.889 60.96 186.625 62.448 187.841 63.984C189.089 65.52 190.305 66.288 191.489 66.288C193.569 66.288 195.537 64.768 197.393 61.728Z" fill="#D69898"/>
</svg>
