<svg width="29" height="27" viewBox="0 0 29 27" fill="none" xmlns="http://www.w3.org/2000/svg">
<path d="M23.3619 4.03589C23.0662 4.04818 22.7876 4.125 22.54 4.21104H22.5365C22.2855 4.30015 21.092 4.74878 19.2796 5.42786C17.4671 6.11002 15.1146 6.99498 12.7793 7.87379C8.11571 9.62835 3.53118 11.3553 3.53118 11.3553L3.58621 11.3368C3.58621 11.3368 3.2698 11.429 2.93963 11.6318C2.7711 11.7301 2.58538 11.8653 2.42374 12.0774C2.26209 12.2894 2.1314 12.6151 2.17955 12.95C2.25865 13.5185 2.67137 13.8596 2.96714 14.047C3.26636 14.2375 3.55182 14.3266 3.55182 14.3266H3.55869L7.85777 15.6203C8.05037 16.1734 9.16813 19.4551 9.43639 20.211C9.59459 20.6627 9.74936 20.9454 9.94196 21.1605C10.0348 21.2711 10.1449 21.3633 10.2756 21.437C10.3272 21.4647 10.3822 21.4862 10.4372 21.5046C10.4544 21.5139 10.4716 21.5169 10.4922 21.52L10.4475 21.5108C10.4613 21.5139 10.4716 21.5231 10.4819 21.5262C10.5163 21.5354 10.5404 21.5385 10.5851 21.5446C11.2661 21.729 11.8129 21.351 11.8129 21.351L11.8439 21.3295L14.382 19.2646L18.6364 22.1807L18.7327 22.2175C19.62 22.5648 20.5177 22.3712 20.9923 22.0301C21.4704 21.6859 21.6561 21.2465 21.6561 21.2465L21.687 21.1759L24.975 6.12845C25.0678 5.75665 25.0919 5.40942 24.9887 5.07142C24.8855 4.73341 24.6207 4.41692 24.3009 4.24791C23.9776 4.07584 23.6577 4.0236 23.3619 4.03589ZM23.2725 5.6491C23.2691 5.69826 23.2794 5.69212 23.2553 5.78737V5.79659L19.9984 20.6873C19.9846 20.7088 19.9605 20.7549 19.8952 20.801C19.8264 20.8501 19.7714 20.8809 19.4859 20.7795L14.2823 17.215L11.1388 19.7747L11.7992 16.0074C11.7992 16.0074 19.9502 9.21967 20.301 8.92776C20.6518 8.63584 20.5349 8.57439 20.5349 8.57439C20.559 8.21794 20.0052 8.46991 20.0052 8.46991L9.28506 14.4035L9.28162 14.3881L4.14337 12.8425V12.8394C4.13993 12.8394 4.13305 12.8363 4.12961 12.8363C4.13305 12.8363 4.15713 12.8271 4.15713 12.8271L4.18464 12.8148L4.21215 12.8056C4.21215 12.8056 8.80013 11.0787 13.4638 9.32415C15.799 8.44533 18.1515 7.56037 19.9605 6.87821C21.7696 6.19913 23.1074 5.70134 23.1831 5.67368C23.2553 5.6491 23.2209 5.6491 23.2725 5.6491Z" fill="#EFDEE0"/>
</svg>
