<svg width="24" height="22" viewBox="0 0 24 22" fill="none" xmlns="http://www.w3.org/2000/svg">
<g clip-path="url(#clip0_146_56)">
<path d="M23.3812 10.6156C23.3812 16.2568 18.3557 20.8309 12.1477 20.8309C10.1738 20.8309 8.33329 20.3674 6.71215 19.5628L0.494629 21.3732L2.52581 15.8895C1.4652 14.2992 0.904192 12.4711 0.90468 10.6069C0.914217 4.95697 5.94927 0.382812 12.1573 0.382812C18.3462 0.382812 23.3812 4.95697 23.3812 10.6156ZM12.1477 2.00082C6.94102 2.00082 2.707 5.8578 2.707 10.5981C2.707 12.4785 3.37453 14.219 4.49978 15.6358L3.31731 18.8369L6.94102 17.7873C8.48781 18.7172 10.2983 19.2098 12.1477 19.2042C17.3544 19.2042 21.5884 15.356 21.5884 10.6069C21.5758 8.31968 20.575 6.13037 18.8053 4.51881C17.0357 2.90725 14.6416 2.00491 12.1477 2.00957M17.8217 12.9595C17.7454 12.8546 17.5642 12.7934 17.2877 12.6709C17.0207 12.5485 15.6665 11.9363 15.4091 11.8576C15.1611 11.7701 14.9704 11.7264 14.7892 11.98C14.5985 12.2336 14.074 12.7934 13.9214 12.9595C13.7593 13.1345 13.5972 13.152 13.3207 13.0295C13.0441 12.8983 12.1573 12.6359 11.1083 11.7788C10.5093 11.2739 9.99509 10.6903 9.58251 10.0471C9.41087 9.7935 9.55391 9.66231 9.69695 9.53987C9.82092 9.42617 9.97349 9.2425 10.107 9.10257C10.25 8.95389 10.2977 8.84019 10.3835 8.68276C10.4789 8.50784 10.4312 8.3679 10.3645 8.24546C10.2882 8.11427 9.74463 6.88109 9.50623 6.38256C9.27736 5.8753 9.0485 5.96276 8.89592 5.96276C8.7338 5.96276 8.54308 5.93652 8.3619 5.93652C8.17118 5.93652 7.88509 6.00649 7.62762 6.25137C7.37968 6.50501 6.67401 7.10848 6.67401 8.35041C6.67401 9.57485 7.65623 10.7643 7.78973 10.9392C7.92324 11.1054 9.69695 13.7117 12.491 14.7175C15.2946 15.7233 15.2946 15.3909 15.8 15.3472C16.3055 15.3035 17.4212 14.735 17.6596 14.1578C17.8884 13.5718 17.8884 13.0645 17.8217 12.9595Z" fill="#EFDEE0"/>
</g>
<defs>
<clipPath id="clip0_146_56">
<rect width="22.8866" height="20.9904" fill="white" transform="translate(0.494629 0.382812)"/>
</clipPath>
</defs>
</svg>
